<?xml version="1.0" encoding="UTF-8" standalone="no"?>
<!DOCTYPE svg PUBLIC "-//W3C//DTD SVG 1.1//EN" "http://www.w3.org/Graphics/SVG/1.1/DTD/svg11.dtd">
<svg width="100%" height="100%" viewBox="0 0 660 141" version="1.1" xmlns="http://www.w3.org/2000/svg" xmlns:xlink="http://www.w3.org/1999/xlink" xml:space="preserve" xmlns:serif="http://www.serif.com/" style="fill-rule:evenodd;clip-rule:evenodd;stroke-linejoin:round;stroke-miterlimit:1.41421;">
    <g transform="matrix(1,0,0,1,-20.16,-279.261)">
        <g transform="matrix(1,0,0,1,0.333626,0)">
            <g transform="matrix(0.459212,0,0,0.459212,206.409,358.856)">
                <path d="M0,-27.822C-2.853,-27.198 -49.561,-15.61 -49.561,-15.61L-87.762,-68.023C-88.832,-69.538 -89.723,-71.054 -87.049,-71.41C-84.375,-71.767 -40.965,-79.612 -39.004,-80.057C-37.043,-80.502 -35.349,-81.037 -32.942,-77.739C-30.536,-74.441 2.495,-32.635 3.743,-31.031C4.991,-29.426 2.853,-28.446 0,-27.822M-8.155,62.494C-6.989,64.328 -5.823,65.495 -9.489,66.828C-13.155,68.161 -133.156,108.661 -135.489,109.661C-137.822,110.661 -139.655,110.994 -142.655,106.661C-145.655,102.328 -184.697,34.761 -184.697,34.761L-57.489,1.661C-54.322,0.661 -53.322,-0.006 -51.322,3.161C-49.322,6.328 -9.321,60.66 -8.155,62.494M-214.175,23.879C-215.735,24.213 -288.805,41.701 -292.704,42.593C-296.603,43.484 -296.603,43.038 -297.048,41.701C-297.494,40.364 -383.927,-137.858 -385.127,-140.086C-386.328,-142.314 -386.265,-144.079 -385.127,-144.079C-383.99,-144.079 -316.119,-150.146 -313.718,-150.272C-311.316,-150.399 -311.569,-149.893 -310.685,-148.377C-310.685,-148.377 -214.955,16.862 -213.284,19.758C-211.613,22.653 -212.616,23.545 -214.175,23.879M22.997,-24.613C20.145,-27.822 -19.305,-77.204 -26.257,-85.583C-33.209,-93.962 -36.597,-92.447 -40.876,-91.823C-45.155,-91.199 -95.071,-82.82 -100.865,-81.84C-106.659,-80.859 -110.313,-78.541 -106.748,-73.55C-103.577,-69.111 -70.762,-22.588 -63.534,-12.342L-193.995,18.911L-297.75,-154.552C-301.88,-160.676 -302.738,-162.816 -312.138,-162.388C-321.538,-161.961 -393.53,-155.98 -398.657,-155.552C-403.785,-155.124 -409.413,-152.842 -404.286,-140.736C-399.158,-128.63 -317.399,47.553 -315.121,52.68C-312.842,57.807 -306.917,66.125 -293.044,62.792C-278.831,59.377 -229.542,46.512 -202.61,39.459C-188.379,65.229 -159.356,117.504 -153.989,124.994C-146.823,134.994 -141.891,133.34 -130.89,130.007C-122.301,127.404 3.511,82.161 9.178,79.828C14.845,77.495 18.345,75.828 14.511,70.161C11.692,65.995 -21.497,21.532 -38.881,-1.729C-26.975,-4.898 15.363,-16.169 19.877,-17.393C25.136,-18.819 25.85,-21.404 22.997,-24.613" style="fill:rgb(254,39,53);fill-rule:nonzero;"/>
            </g>
            <g transform="matrix(0.459212,0,0,0.459212,212.409,353.856)">
                <path d="M0,-27.822C-2.853,-27.198 -49.561,-15.61 -49.561,-15.61L-87.762,-68.023C-88.832,-69.538 -89.723,-71.054 -87.049,-71.41C-84.375,-71.767 -40.965,-79.612 -39.004,-80.057C-37.043,-80.502 -35.349,-81.037 -32.942,-77.739C-30.536,-74.441 2.495,-32.635 3.743,-31.031C4.991,-29.426 2.853,-28.446 0,-27.822M-8.155,62.494C-6.989,64.328 -5.823,65.495 -9.489,66.828C-13.155,68.161 -133.156,108.661 -135.489,109.661C-137.822,110.661 -139.655,110.994 -142.655,106.661C-145.655,102.328 -184.697,34.761 -184.697,34.761L-57.489,1.661C-54.322,0.661 -53.322,-0.006 -51.322,3.161C-49.322,6.328 -9.321,60.66 -8.155,62.494M-214.175,23.879C-215.735,24.213 -288.805,41.701 -292.704,42.593C-296.603,43.484 -296.603,43.038 -297.048,41.701C-297.494,40.364 -383.927,-137.858 -385.127,-140.086C-386.328,-142.314 -386.265,-144.079 -385.127,-144.079C-383.99,-144.079 -316.119,-150.146 -313.718,-150.272C-311.316,-150.399 -311.569,-149.893 -310.685,-148.377C-310.685,-148.377 -214.955,16.862 -213.284,19.758C-211.613,22.653 -212.616,23.545 -214.175,23.879M22.997,-24.613C20.145,-27.822 -19.305,-77.204 -26.257,-85.583C-33.209,-93.962 -36.597,-92.447 -40.876,-91.823C-45.155,-91.199 -95.071,-82.82 -100.865,-81.84C-106.659,-80.859 -110.313,-78.541 -106.748,-73.55C-103.577,-69.111 -70.762,-22.588 -63.534,-12.342L-193.995,18.911L-297.75,-154.552C-301.88,-160.676 -302.738,-162.816 -312.138,-162.388C-321.538,-161.961 -393.53,-155.98 -398.657,-155.552C-403.785,-155.124 -409.413,-152.842 -404.286,-140.736C-399.158,-128.63 -317.399,47.553 -315.121,52.68C-312.842,57.807 -306.917,66.125 -293.044,62.792C-278.831,59.377 -229.542,46.512 -202.61,39.459C-188.379,65.229 -159.356,117.504 -153.989,124.994C-146.823,134.994 -141.891,133.34 -130.89,130.007C-122.301,127.404 3.511,82.161 9.178,79.828C14.845,77.495 18.345,75.828 14.511,70.161C11.692,65.995 -21.497,21.532 -38.881,-1.729C-26.975,-4.898 15.363,-16.169 19.877,-17.393C25.136,-18.819 25.85,-21.404 22.997,-24.613" style="fill:rgb(34,247,244);fill-rule:nonzero;"/>
            </g>
            <g transform="matrix(0.459212,0,0,0.459212,209.409,356.856)">
                <path d="M0,-27.822C-2.853,-27.198 -49.561,-15.61 -49.561,-15.61L-87.762,-68.023C-88.832,-69.538 -89.723,-71.054 -87.049,-71.41C-84.375,-71.767 -40.965,-79.612 -39.004,-80.057C-37.043,-80.502 -35.349,-81.037 -32.942,-77.739C-30.536,-74.441 2.495,-32.635 3.743,-31.031C4.991,-29.426 2.853,-28.446 0,-27.822M-8.155,62.494C-6.989,64.328 -5.823,65.495 -9.489,66.828C-13.155,68.161 -133.156,108.661 -135.489,109.661C-137.822,110.661 -139.655,110.994 -142.655,106.661C-145.655,102.328 -184.697,34.761 -184.697,34.761L-57.489,1.661C-54.322,0.661 -53.322,-0.006 -51.322,3.161C-49.322,6.328 -9.321,60.66 -8.155,62.494M-214.175,23.879C-215.735,24.213 -288.805,41.701 -292.704,42.593C-296.603,43.484 -296.603,43.038 -297.048,41.701C-297.494,40.364 -383.927,-137.858 -385.127,-140.086C-386.328,-142.314 -386.265,-144.079 -385.127,-144.079C-383.99,-144.079 -316.119,-150.146 -313.718,-150.272C-311.316,-150.399 -311.569,-149.893 -310.685,-148.377C-310.685,-148.377 -214.955,16.862 -213.284,19.758C-211.613,22.653 -212.616,23.545 -214.175,23.879M22.997,-24.613C20.145,-27.822 -19.305,-77.204 -26.257,-85.583C-33.209,-93.962 -36.597,-92.447 -40.876,-91.823C-45.155,-91.199 -95.071,-82.82 -100.865,-81.84C-106.659,-80.859 -110.313,-78.541 -106.748,-73.55C-103.577,-69.111 -70.762,-22.588 -63.534,-12.342L-193.995,18.911L-297.75,-154.552C-301.88,-160.676 -302.738,-162.816 -312.138,-162.388C-321.538,-161.961 -393.53,-155.98 -398.657,-155.552C-403.785,-155.124 -409.413,-152.842 -404.286,-140.736C-399.158,-128.63 -317.399,47.553 -315.121,52.68C-312.842,57.807 -306.917,66.125 -293.044,62.792C-278.831,59.377 -229.542,46.512 -202.61,39.459C-188.379,65.229 -159.356,117.504 -153.989,124.994C-146.823,134.994 -141.891,133.34 -130.89,130.007C-122.301,127.404 3.511,82.161 9.178,79.828C14.845,77.495 18.345,75.828 14.511,70.161C11.692,65.995 -21.497,21.532 -38.881,-1.729C-26.975,-4.898 15.363,-16.169 19.877,-17.393C25.136,-18.819 25.85,-21.404 22.997,-24.613" style="fill-rule:nonzero;"/>
            </g>
        </g>
        <g transform="matrix(1,0,0,1,0.333626,0)">
            <g transform="matrix(1,0,0,1,-52.5246,24.6247)">
                <g transform="matrix(72,0,0,72,292.484,348.573)">
                    <path d="M0.075,-0.712L0.53,-0.712L0.53,-0.61L0.183,-0.61L0.183,-0.407L0.479,-0.407L0.479,-0.311L0.183,-0.311L0.183,-0.102L0.53,-0.102L0.53,0L0.075,0L0.075,-0.712Z" style="fill:rgb(254,39,53);fill-rule:nonzero;"/>
                </g>
                <g transform="matrix(72,0,0,72,332.527,348.573)">
                    <path d="M0.066,-0.712L0.168,-0.712L0.168,-0.131C0.168,-0.108 0.181,-0.096 0.206,-0.096L0.241,-0.096L0.241,0L0.196,0C0.159,0 0.128,-0.009 0.104,-0.028C0.079,-0.047 0.066,-0.078 0.066,-0.123L0.066,-0.712Z" style="fill:rgb(254,39,53);fill-rule:nonzero;"/>
                </g>
                <g transform="matrix(72,0,0,72,351.09,348.573)">
                    <path d="M0.041,-0.254C0.041,-0.307 0.045,-0.348 0.054,-0.377C0.063,-0.405 0.077,-0.429 0.096,-0.448C0.11,-0.465 0.13,-0.48 0.155,-0.493C0.18,-0.506 0.211,-0.513 0.25,-0.513C0.29,-0.513 0.322,-0.506 0.347,-0.493C0.372,-0.48 0.39,-0.465 0.404,-0.448C0.424,-0.429 0.438,-0.405 0.447,-0.377C0.455,-0.348 0.459,-0.307 0.459,-0.254C0.459,-0.201 0.455,-0.16 0.447,-0.132C0.438,-0.104 0.424,-0.08 0.404,-0.059C0.397,-0.052 0.389,-0.044 0.38,-0.037C0.371,-0.029 0.361,-0.022 0.347,-0.016C0.322,-0.002 0.29,0.005 0.25,0.006C0.211,0.005 0.18,-0.002 0.155,-0.016C0.13,-0.029 0.11,-0.043 0.096,-0.059C0.077,-0.08 0.063,-0.104 0.054,-0.132C0.045,-0.16 0.041,-0.201 0.041,-0.254ZM0.357,-0.253C0.357,-0.289 0.355,-0.315 0.352,-0.332C0.349,-0.348 0.342,-0.362 0.332,-0.374C0.325,-0.385 0.313,-0.394 0.299,-0.401C0.285,-0.408 0.269,-0.411 0.25,-0.411C0.233,-0.411 0.217,-0.408 0.202,-0.401C0.188,-0.394 0.177,-0.385 0.168,-0.374C0.159,-0.362 0.153,-0.348 0.149,-0.332C0.145,-0.315 0.143,-0.289 0.143,-0.254C0.143,-0.219 0.145,-0.193 0.149,-0.177C0.153,-0.16 0.159,-0.146 0.168,-0.133C0.177,-0.123 0.188,-0.114 0.202,-0.107C0.217,-0.1 0.233,-0.096 0.25,-0.096C0.269,-0.096 0.285,-0.1 0.299,-0.107C0.313,-0.114 0.325,-0.123 0.332,-0.133C0.342,-0.146 0.349,-0.16 0.352,-0.177C0.355,-0.193 0.357,-0.218 0.357,-0.253Z" style="fill:rgb(254,39,53);fill-rule:nonzero;"/>
                </g>
                <g transform="matrix(72,0,0,72,387.09,348.573)">
                    <path d="M0.351,-0.054C0.332,-0.036 0.313,-0.022 0.292,-0.011C0.27,0 0.246,0.006 0.22,0.006C0.189,0.005 0.163,-0.001 0.141,-0.013C0.118,-0.025 0.099,-0.041 0.084,-0.06C0.07,-0.077 0.061,-0.098 0.056,-0.124C0.051,-0.15 0.048,-0.193 0.048,-0.253C0.048,-0.314 0.051,-0.358 0.056,-0.384C0.061,-0.41 0.07,-0.431 0.084,-0.447C0.113,-0.489 0.158,-0.512 0.22,-0.513C0.274,-0.512 0.318,-0.492 0.351,-0.454L0.351,-0.507L0.453,-0.507L0.453,0.205L0.351,0.205L0.351,-0.054ZM0.251,-0.096C0.275,-0.096 0.294,-0.101 0.308,-0.111C0.322,-0.12 0.332,-0.133 0.337,-0.148C0.344,-0.163 0.348,-0.18 0.35,-0.199C0.351,-0.217 0.351,-0.235 0.351,-0.253C0.351,-0.272 0.351,-0.291 0.35,-0.31C0.348,-0.328 0.344,-0.345 0.337,-0.36C0.332,-0.375 0.322,-0.388 0.308,-0.397C0.294,-0.406 0.275,-0.411 0.251,-0.411C0.227,-0.411 0.208,-0.407 0.196,-0.399C0.182,-0.39 0.172,-0.378 0.165,-0.363C0.159,-0.348 0.155,-0.331 0.153,-0.312C0.151,-0.293 0.15,-0.273 0.15,-0.253C0.15,-0.234 0.151,-0.215 0.153,-0.197C0.155,-0.178 0.159,-0.161 0.165,-0.146C0.172,-0.131 0.182,-0.119 0.196,-0.11C0.208,-0.101 0.227,-0.096 0.251,-0.096Z" style="fill:rgb(254,39,53);fill-rule:nonzero;"/>
                </g>
                <g transform="matrix(72,0,0,72,424.461,348.573)">
                    <path d="M0.066,-0.507L0.168,-0.507L0.168,-0.205C0.168,-0.171 0.178,-0.144 0.197,-0.125C0.216,-0.106 0.24,-0.096 0.269,-0.096C0.298,-0.096 0.322,-0.106 0.341,-0.125C0.36,-0.144 0.369,-0.171 0.369,-0.205L0.369,-0.507L0.471,-0.507L0.471,0L0.369,0L0.369,-0.054L0.367,-0.054C0.334,-0.014 0.29,0.006 0.236,0.006C0.194,0.005 0.156,-0.01 0.122,-0.04C0.085,-0.069 0.067,-0.113 0.066,-0.17L0.066,-0.507Z" style="fill:rgb(254,39,53);fill-rule:nonzero;"/>
                </g>
                <g transform="matrix(72,0,0,72,463.133,348.573)">
                    <path d="M0.143,-0.215C0.143,-0.174 0.155,-0.143 0.178,-0.122C0.2,-0.101 0.229,-0.09 0.264,-0.09C0.306,-0.09 0.342,-0.106 0.375,-0.139L0.449,-0.076C0.397,-0.021 0.336,0.007 0.266,0.006C0.239,0.006 0.213,0.002 0.188,-0.006C0.175,-0.01 0.163,-0.016 0.151,-0.023C0.138,-0.029 0.126,-0.037 0.115,-0.046C0.094,-0.065 0.076,-0.091 0.063,-0.125C0.048,-0.158 0.041,-0.2 0.041,-0.252C0.041,-0.302 0.047,-0.344 0.06,-0.377C0.073,-0.411 0.089,-0.438 0.109,-0.457C0.129,-0.477 0.152,-0.491 0.177,-0.5C0.201,-0.509 0.226,-0.513 0.25,-0.513C0.308,-0.513 0.357,-0.493 0.397,-0.456C0.438,-0.418 0.458,-0.366 0.459,-0.299L0.459,-0.215L0.143,-0.215ZM0.357,-0.299C0.356,-0.338 0.345,-0.368 0.325,-0.388C0.306,-0.407 0.281,-0.417 0.25,-0.417C0.219,-0.417 0.194,-0.407 0.175,-0.388C0.156,-0.368 0.145,-0.338 0.143,-0.299L0.357,-0.299Z" style="fill:rgb(254,39,53);fill-rule:nonzero;"/>
                </g>
                <g transform="matrix(72,0,0,72,499.133,348.573)">
                    <path d="M0.066,-0.507L0.168,-0.507L0.168,-0.453L0.17,-0.453C0.203,-0.493 0.247,-0.513 0.302,-0.513C0.344,-0.513 0.382,-0.498 0.417,-0.469C0.451,-0.439 0.47,-0.395 0.471,-0.337L0.471,0L0.369,0L0.369,-0.302C0.369,-0.337 0.36,-0.364 0.341,-0.383C0.322,-0.402 0.298,-0.411 0.269,-0.411C0.24,-0.411 0.216,-0.402 0.197,-0.383C0.178,-0.364 0.168,-0.337 0.168,-0.302L0.168,0L0.066,0L0.066,-0.507Z" style="fill:rgb(254,39,53);fill-rule:nonzero;"/>
                </g>
                <g transform="matrix(72,0,0,72,537.804,348.573)">
                    <path d="M0.072,-0.661L0.174,-0.661L0.174,-0.507L0.248,-0.507L0.248,-0.429L0.174,-0.429L0.174,-0.134C0.173,-0.108 0.185,-0.096 0.21,-0.096L0.248,-0.096L0.248,0L0.195,0C0.159,0 0.13,-0.011 0.107,-0.033C0.083,-0.054 0.072,-0.085 0.072,-0.125L0.072,-0.429L0.021,-0.429L0.021,-0.507L0.072,-0.507L0.072,-0.661Z" style="fill:rgb(254,39,53);fill-rule:nonzero;"/>
                </g>
                <g transform="matrix(72,0,0,72,575.07,348.573)">
                    <path d="M0.062,-0.712L0.17,-0.712L0.17,-0.253C0.171,-0.204 0.185,-0.167 0.212,-0.142C0.239,-0.115 0.273,-0.102 0.315,-0.102C0.357,-0.102 0.392,-0.115 0.419,-0.142C0.446,-0.167 0.459,-0.204 0.46,-0.253L0.46,-0.712L0.568,-0.712L0.568,-0.241C0.567,-0.166 0.542,-0.107 0.495,-0.063C0.448,-0.018 0.388,0.005 0.315,0.006C0.244,0.005 0.184,-0.018 0.136,-0.063C0.087,-0.107 0.063,-0.166 0.062,-0.241L0.062,-0.712Z" style="fill:rgb(254,39,53);fill-rule:nonzero;"/>
                </g>
                <g transform="matrix(72,0,0,72,620.422,348.573)">
                    <path d="M0.062,-0.712L0.17,-0.712L0.17,-0.253C0.171,-0.204 0.185,-0.167 0.212,-0.142C0.239,-0.115 0.273,-0.102 0.315,-0.102C0.357,-0.102 0.392,-0.115 0.419,-0.142C0.446,-0.167 0.459,-0.204 0.46,-0.253L0.46,-0.712L0.568,-0.712L0.568,-0.241C0.567,-0.166 0.542,-0.107 0.495,-0.063C0.448,-0.018 0.388,0.005 0.315,0.006C0.244,0.005 0.184,-0.018 0.136,-0.063C0.087,-0.107 0.063,-0.166 0.062,-0.241L0.062,-0.712Z" style="fill:rgb(254,39,53);fill-rule:nonzero;"/>
                </g>
                <g transform="matrix(72,0,0,72,665.773,348.573)">
                    <rect x="0.075" y="-0.712" width="0.108" height="0.712" style="fill:rgb(254,39,53);fill-rule:nonzero;"/>
                </g>
                <g transform="matrix(72,0,0,72,684.336,348.573)">
                    <path d="M0.075,-0.712L0.324,-0.712C0.421,-0.711 0.493,-0.671 0.541,-0.592C0.558,-0.565 0.569,-0.537 0.574,-0.508C0.577,-0.479 0.579,-0.428 0.579,-0.356C0.579,-0.279 0.576,-0.226 0.571,-0.196C0.568,-0.181 0.564,-0.167 0.559,-0.155C0.554,-0.143 0.547,-0.131 0.539,-0.118C0.518,-0.085 0.489,-0.057 0.452,-0.035C0.415,-0.012 0.37,0 0.317,0L0.075,0L0.075,-0.712ZM0.183,-0.102L0.312,-0.102C0.373,-0.102 0.417,-0.123 0.444,-0.164C0.456,-0.179 0.464,-0.199 0.467,-0.222C0.47,-0.245 0.471,-0.289 0.471,-0.352C0.471,-0.414 0.47,-0.458 0.467,-0.485C0.463,-0.512 0.454,-0.533 0.439,-0.55C0.409,-0.591 0.367,-0.611 0.312,-0.61L0.183,-0.61L0.183,-0.102Z" style="fill:rgb(254,39,53);fill-rule:nonzero;"/>
                </g>
            </g>
            <g transform="matrix(1,0,0,1,-46.5246,19.6247)">
                <g transform="matrix(72,0,0,72,292.484,348.573)">
                    <path d="M0.075,-0.712L0.53,-0.712L0.53,-0.61L0.183,-0.61L0.183,-0.407L0.479,-0.407L0.479,-0.311L0.183,-0.311L0.183,-0.102L0.53,-0.102L0.53,0L0.075,0L0.075,-0.712Z" style="fill:rgb(34,247,244);fill-rule:nonzero;"/>
                </g>
                <g transform="matrix(72,0,0,72,332.527,348.573)">
                    <path d="M0.066,-0.712L0.168,-0.712L0.168,-0.131C0.168,-0.108 0.181,-0.096 0.206,-0.096L0.241,-0.096L0.241,0L0.196,0C0.159,0 0.128,-0.009 0.104,-0.028C0.079,-0.047 0.066,-0.078 0.066,-0.123L0.066,-0.712Z" style="fill:rgb(34,247,244);fill-rule:nonzero;"/>
                </g>
                <g transform="matrix(72,0,0,72,351.09,348.573)">
                    <path d="M0.041,-0.254C0.041,-0.307 0.045,-0.348 0.054,-0.377C0.063,-0.405 0.077,-0.429 0.096,-0.448C0.11,-0.465 0.13,-0.48 0.155,-0.493C0.18,-0.506 0.211,-0.513 0.25,-0.513C0.29,-0.513 0.322,-0.506 0.347,-0.493C0.372,-0.48 0.39,-0.465 0.404,-0.448C0.424,-0.429 0.438,-0.405 0.447,-0.377C0.455,-0.348 0.459,-0.307 0.459,-0.254C0.459,-0.201 0.455,-0.16 0.447,-0.132C0.438,-0.104 0.424,-0.08 0.404,-0.059C0.397,-0.052 0.389,-0.044 0.38,-0.037C0.371,-0.029 0.361,-0.022 0.347,-0.016C0.322,-0.002 0.29,0.005 0.25,0.006C0.211,0.005 0.18,-0.002 0.155,-0.016C0.13,-0.029 0.11,-0.043 0.096,-0.059C0.077,-0.08 0.063,-0.104 0.054,-0.132C0.045,-0.16 0.041,-0.201 0.041,-0.254ZM0.357,-0.253C0.357,-0.289 0.355,-0.315 0.352,-0.332C0.349,-0.348 0.342,-0.362 0.332,-0.374C0.325,-0.385 0.313,-0.394 0.299,-0.401C0.285,-0.408 0.269,-0.411 0.25,-0.411C0.233,-0.411 0.217,-0.408 0.202,-0.401C0.188,-0.394 0.177,-0.385 0.168,-0.374C0.159,-0.362 0.153,-0.348 0.149,-0.332C0.145,-0.315 0.143,-0.289 0.143,-0.254C0.143,-0.219 0.145,-0.193 0.149,-0.177C0.153,-0.16 0.159,-0.146 0.168,-0.133C0.177,-0.123 0.188,-0.114 0.202,-0.107C0.217,-0.1 0.233,-0.096 0.25,-0.096C0.269,-0.096 0.285,-0.1 0.299,-0.107C0.313,-0.114 0.325,-0.123 0.332,-0.133C0.342,-0.146 0.349,-0.16 0.352,-0.177C0.355,-0.193 0.357,-0.218 0.357,-0.253Z" style="fill:rgb(34,247,244);fill-rule:nonzero;"/>
                </g>
                <g transform="matrix(72,0,0,72,387.09,348.573)">
                    <path d="M0.351,-0.054C0.332,-0.036 0.313,-0.022 0.292,-0.011C0.27,0 0.246,0.006 0.22,0.006C0.189,0.005 0.163,-0.001 0.141,-0.013C0.118,-0.025 0.099,-0.041 0.084,-0.06C0.07,-0.077 0.061,-0.098 0.056,-0.124C0.051,-0.15 0.048,-0.193 0.048,-0.253C0.048,-0.314 0.051,-0.358 0.056,-0.384C0.061,-0.41 0.07,-0.431 0.084,-0.447C0.113,-0.489 0.158,-0.512 0.22,-0.513C0.274,-0.512 0.318,-0.492 0.351,-0.454L0.351,-0.507L0.453,-0.507L0.453,0.205L0.351,0.205L0.351,-0.054ZM0.251,-0.096C0.275,-0.096 0.294,-0.101 0.308,-0.111C0.322,-0.12 0.332,-0.133 0.337,-0.148C0.344,-0.163 0.348,-0.18 0.35,-0.199C0.351,-0.217 0.351,-0.235 0.351,-0.253C0.351,-0.272 0.351,-0.291 0.35,-0.31C0.348,-0.328 0.344,-0.345 0.337,-0.36C0.332,-0.375 0.322,-0.388 0.308,-0.397C0.294,-0.406 0.275,-0.411 0.251,-0.411C0.227,-0.411 0.208,-0.407 0.196,-0.399C0.182,-0.39 0.172,-0.378 0.165,-0.363C0.159,-0.348 0.155,-0.331 0.153,-0.312C0.151,-0.293 0.15,-0.273 0.15,-0.253C0.15,-0.234 0.151,-0.215 0.153,-0.197C0.155,-0.178 0.159,-0.161 0.165,-0.146C0.172,-0.131 0.182,-0.119 0.196,-0.11C0.208,-0.101 0.227,-0.096 0.251,-0.096Z" style="fill:rgb(34,247,244);fill-rule:nonzero;"/>
                </g>
                <g transform="matrix(72,0,0,72,424.461,348.573)">
                    <path d="M0.066,-0.507L0.168,-0.507L0.168,-0.205C0.168,-0.171 0.178,-0.144 0.197,-0.125C0.216,-0.106 0.24,-0.096 0.269,-0.096C0.298,-0.096 0.322,-0.106 0.341,-0.125C0.36,-0.144 0.369,-0.171 0.369,-0.205L0.369,-0.507L0.471,-0.507L0.471,0L0.369,0L0.369,-0.054L0.367,-0.054C0.334,-0.014 0.29,0.006 0.236,0.006C0.194,0.005 0.156,-0.01 0.122,-0.04C0.085,-0.069 0.067,-0.113 0.066,-0.17L0.066,-0.507Z" style="fill:rgb(34,247,244);fill-rule:nonzero;"/>
                </g>
                <g transform="matrix(72,0,0,72,463.133,348.573)">
                    <path d="M0.143,-0.215C0.143,-0.174 0.155,-0.143 0.178,-0.122C0.2,-0.101 0.229,-0.09 0.264,-0.09C0.306,-0.09 0.342,-0.106 0.375,-0.139L0.449,-0.076C0.397,-0.021 0.336,0.007 0.266,0.006C0.239,0.006 0.213,0.002 0.188,-0.006C0.175,-0.01 0.163,-0.016 0.151,-0.023C0.138,-0.029 0.126,-0.037 0.115,-0.046C0.094,-0.065 0.076,-0.091 0.063,-0.125C0.048,-0.158 0.041,-0.2 0.041,-0.252C0.041,-0.302 0.047,-0.344 0.06,-0.377C0.073,-0.411 0.089,-0.438 0.109,-0.457C0.129,-0.477 0.152,-0.491 0.177,-0.5C0.201,-0.509 0.226,-0.513 0.25,-0.513C0.308,-0.513 0.357,-0.493 0.397,-0.456C0.438,-0.418 0.458,-0.366 0.459,-0.299L0.459,-0.215L0.143,-0.215ZM0.357,-0.299C0.356,-0.338 0.345,-0.368 0.325,-0.388C0.306,-0.407 0.281,-0.417 0.25,-0.417C0.219,-0.417 0.194,-0.407 0.175,-0.388C0.156,-0.368 0.145,-0.338 0.143,-0.299L0.357,-0.299Z" style="fill:rgb(34,247,244);fill-rule:nonzero;"/>
                </g>
                <g transform="matrix(72,0,0,72,499.133,348.573)">
                    <path d="M0.066,-0.507L0.168,-0.507L0.168,-0.453L0.17,-0.453C0.203,-0.493 0.247,-0.513 0.302,-0.513C0.344,-0.513 0.382,-0.498 0.417,-0.469C0.451,-0.439 0.47,-0.395 0.471,-0.337L0.471,0L0.369,0L0.369,-0.302C0.369,-0.337 0.36,-0.364 0.341,-0.383C0.322,-0.402 0.298,-0.411 0.269,-0.411C0.24,-0.411 0.216,-0.402 0.197,-0.383C0.178,-0.364 0.168,-0.337 0.168,-0.302L0.168,0L0.066,0L0.066,-0.507Z" style="fill:rgb(34,247,244);fill-rule:nonzero;"/>
                </g>
                <g transform="matrix(72,0,0,72,537.804,348.573)">
                    <path d="M0.072,-0.661L0.174,-0.661L0.174,-0.507L0.248,-0.507L0.248,-0.429L0.174,-0.429L0.174,-0.134C0.173,-0.108 0.185,-0.096 0.21,-0.096L0.248,-0.096L0.248,0L0.195,0C0.159,0 0.13,-0.011 0.107,-0.033C0.083,-0.054 0.072,-0.085 0.072,-0.125L0.072,-0.429L0.021,-0.429L0.021,-0.507L0.072,-0.507L0.072,-0.661Z" style="fill:rgb(34,247,244);fill-rule:nonzero;"/>
                </g>
                <g transform="matrix(72,0,0,72,575.07,348.573)">
                    <path d="M0.062,-0.712L0.17,-0.712L0.17,-0.253C0.171,-0.204 0.185,-0.167 0.212,-0.142C0.239,-0.115 0.273,-0.102 0.315,-0.102C0.357,-0.102 0.392,-0.115 0.419,-0.142C0.446,-0.167 0.459,-0.204 0.46,-0.253L0.46,-0.712L0.568,-0.712L0.568,-0.241C0.567,-0.166 0.542,-0.107 0.495,-0.063C0.448,-0.018 0.388,0.005 0.315,0.006C0.244,0.005 0.184,-0.018 0.136,-0.063C0.087,-0.107 0.063,-0.166 0.062,-0.241L0.062,-0.712Z" style="fill:rgb(34,247,244);fill-rule:nonzero;"/>
                </g>
                <g transform="matrix(72,0,0,72,620.422,348.573)">
                    <path d="M0.062,-0.712L0.17,-0.712L0.17,-0.253C0.171,-0.204 0.185,-0.167 0.212,-0.142C0.239,-0.115 0.273,-0.102 0.315,-0.102C0.357,-0.102 0.392,-0.115 0.419,-0.142C0.446,-0.167 0.459,-0.204 0.46,-0.253L0.46,-0.712L0.568,-0.712L0.568,-0.241C0.567,-0.166 0.542,-0.107 0.495,-0.063C0.448,-0.018 0.388,0.005 0.315,0.006C0.244,0.005 0.184,-0.018 0.136,-0.063C0.087,-0.107 0.063,-0.166 0.062,-0.241L0.062,-0.712Z" style="fill:rgb(34,247,244);fill-rule:nonzero;"/>
                </g>
                <g transform="matrix(72,0,0,72,665.773,348.573)">
                    <rect x="0.075" y="-0.712" width="0.108" height="0.712" style="fill:rgb(34,247,244);fill-rule:nonzero;"/>
                </g>
                <g transform="matrix(72,0,0,72,684.336,348.573)">
                    <path d="M0.075,-0.712L0.324,-0.712C0.421,-0.711 0.493,-0.671 0.541,-0.592C0.558,-0.565 0.569,-0.537 0.574,-0.508C0.577,-0.479 0.579,-0.428 0.579,-0.356C0.579,-0.279 0.576,-0.226 0.571,-0.196C0.568,-0.181 0.564,-0.167 0.559,-0.155C0.554,-0.143 0.547,-0.131 0.539,-0.118C0.518,-0.085 0.489,-0.057 0.452,-0.035C0.415,-0.012 0.37,0 0.317,0L0.075,0L0.075,-0.712ZM0.183,-0.102L0.312,-0.102C0.373,-0.102 0.417,-0.123 0.444,-0.164C0.456,-0.179 0.464,-0.199 0.467,-0.222C0.47,-0.245 0.471,-0.289 0.471,-0.352C0.471,-0.414 0.47,-0.458 0.467,-0.485C0.463,-0.512 0.454,-0.533 0.439,-0.55C0.409,-0.591 0.367,-0.611 0.312,-0.61L0.183,-0.61L0.183,-0.102Z" style="fill:rgb(34,247,244);fill-rule:nonzero;"/>
                </g>
            </g>
            <g transform="matrix(1,0,0,1,-49.5246,22.6247)">
                <g transform="matrix(72,0,0,72,292.484,348.573)">
                    <path d="M0.075,-0.712L0.53,-0.712L0.53,-0.61L0.183,-0.61L0.183,-0.407L0.479,-0.407L0.479,-0.311L0.183,-0.311L0.183,-0.102L0.53,-0.102L0.53,0L0.075,0L0.075,-0.712Z" style="fill-rule:nonzero;"/>
                </g>
                <g transform="matrix(72,0,0,72,332.527,348.573)">
                    <path d="M0.066,-0.712L0.168,-0.712L0.168,-0.131C0.168,-0.108 0.181,-0.096 0.206,-0.096L0.241,-0.096L0.241,0L0.196,0C0.159,0 0.128,-0.009 0.104,-0.028C0.079,-0.047 0.066,-0.078 0.066,-0.123L0.066,-0.712Z" style="fill-rule:nonzero;"/>
                </g>
                <g transform="matrix(72,0,0,72,351.09,348.573)">
                    <path d="M0.041,-0.254C0.041,-0.307 0.045,-0.348 0.054,-0.377C0.063,-0.405 0.077,-0.429 0.096,-0.448C0.11,-0.465 0.13,-0.48 0.155,-0.493C0.18,-0.506 0.211,-0.513 0.25,-0.513C0.29,-0.513 0.322,-0.506 0.347,-0.493C0.372,-0.48 0.39,-0.465 0.404,-0.448C0.424,-0.429 0.438,-0.405 0.447,-0.377C0.455,-0.348 0.459,-0.307 0.459,-0.254C0.459,-0.201 0.455,-0.16 0.447,-0.132C0.438,-0.104 0.424,-0.08 0.404,-0.059C0.397,-0.052 0.389,-0.044 0.38,-0.037C0.371,-0.029 0.361,-0.022 0.347,-0.016C0.322,-0.002 0.29,0.005 0.25,0.006C0.211,0.005 0.18,-0.002 0.155,-0.016C0.13,-0.029 0.11,-0.043 0.096,-0.059C0.077,-0.08 0.063,-0.104 0.054,-0.132C0.045,-0.16 0.041,-0.201 0.041,-0.254ZM0.357,-0.253C0.357,-0.289 0.355,-0.315 0.352,-0.332C0.349,-0.348 0.342,-0.362 0.332,-0.374C0.325,-0.385 0.313,-0.394 0.299,-0.401C0.285,-0.408 0.269,-0.411 0.25,-0.411C0.233,-0.411 0.217,-0.408 0.202,-0.401C0.188,-0.394 0.177,-0.385 0.168,-0.374C0.159,-0.362 0.153,-0.348 0.149,-0.332C0.145,-0.315 0.143,-0.289 0.143,-0.254C0.143,-0.219 0.145,-0.193 0.149,-0.177C0.153,-0.16 0.159,-0.146 0.168,-0.133C0.177,-0.123 0.188,-0.114 0.202,-0.107C0.217,-0.1 0.233,-0.096 0.25,-0.096C0.269,-0.096 0.285,-0.1 0.299,-0.107C0.313,-0.114 0.325,-0.123 0.332,-0.133C0.342,-0.146 0.349,-0.16 0.352,-0.177C0.355,-0.193 0.357,-0.218 0.357,-0.253Z" style="fill-rule:nonzero;"/>
                </g>
                <g transform="matrix(72,0,0,72,387.09,348.573)">
                    <path d="M0.351,-0.054C0.332,-0.036 0.313,-0.022 0.292,-0.011C0.27,0 0.246,0.006 0.22,0.006C0.189,0.005 0.163,-0.001 0.141,-0.013C0.118,-0.025 0.099,-0.041 0.084,-0.06C0.07,-0.077 0.061,-0.098 0.056,-0.124C0.051,-0.15 0.048,-0.193 0.048,-0.253C0.048,-0.314 0.051,-0.358 0.056,-0.384C0.061,-0.41 0.07,-0.431 0.084,-0.447C0.113,-0.489 0.158,-0.512 0.22,-0.513C0.274,-0.512 0.318,-0.492 0.351,-0.454L0.351,-0.507L0.453,-0.507L0.453,0.205L0.351,0.205L0.351,-0.054ZM0.251,-0.096C0.275,-0.096 0.294,-0.101 0.308,-0.111C0.322,-0.12 0.332,-0.133 0.337,-0.148C0.344,-0.163 0.348,-0.18 0.35,-0.199C0.351,-0.217 0.351,-0.235 0.351,-0.253C0.351,-0.272 0.351,-0.291 0.35,-0.31C0.348,-0.328 0.344,-0.345 0.337,-0.36C0.332,-0.375 0.322,-0.388 0.308,-0.397C0.294,-0.406 0.275,-0.411 0.251,-0.411C0.227,-0.411 0.208,-0.407 0.196,-0.399C0.182,-0.39 0.172,-0.378 0.165,-0.363C0.159,-0.348 0.155,-0.331 0.153,-0.312C0.151,-0.293 0.15,-0.273 0.15,-0.253C0.15,-0.234 0.151,-0.215 0.153,-0.197C0.155,-0.178 0.159,-0.161 0.165,-0.146C0.172,-0.131 0.182,-0.119 0.196,-0.11C0.208,-0.101 0.227,-0.096 0.251,-0.096Z" style="fill-rule:nonzero;"/>
                </g>
                <g transform="matrix(72,0,0,72,424.461,348.573)">
                    <path d="M0.066,-0.507L0.168,-0.507L0.168,-0.205C0.168,-0.171 0.178,-0.144 0.197,-0.125C0.216,-0.106 0.24,-0.096 0.269,-0.096C0.298,-0.096 0.322,-0.106 0.341,-0.125C0.36,-0.144 0.369,-0.171 0.369,-0.205L0.369,-0.507L0.471,-0.507L0.471,0L0.369,0L0.369,-0.054L0.367,-0.054C0.334,-0.014 0.29,0.006 0.236,0.006C0.194,0.005 0.156,-0.01 0.122,-0.04C0.085,-0.069 0.067,-0.113 0.066,-0.17L0.066,-0.507Z" style="fill-rule:nonzero;"/>
                </g>
                <g transform="matrix(72,0,0,72,463.133,348.573)">
                    <path d="M0.143,-0.215C0.143,-0.174 0.155,-0.143 0.178,-0.122C0.2,-0.101 0.229,-0.09 0.264,-0.09C0.306,-0.09 0.342,-0.106 0.375,-0.139L0.449,-0.076C0.397,-0.021 0.336,0.007 0.266,0.006C0.239,0.006 0.213,0.002 0.188,-0.006C0.175,-0.01 0.163,-0.016 0.151,-0.023C0.138,-0.029 0.126,-0.037 0.115,-0.046C0.094,-0.065 0.076,-0.091 0.063,-0.125C0.048,-0.158 0.041,-0.2 0.041,-0.252C0.041,-0.302 0.047,-0.344 0.06,-0.377C0.073,-0.411 0.089,-0.438 0.109,-0.457C0.129,-0.477 0.152,-0.491 0.177,-0.5C0.201,-0.509 0.226,-0.513 0.25,-0.513C0.308,-0.513 0.357,-0.493 0.397,-0.456C0.438,-0.418 0.458,-0.366 0.459,-0.299L0.459,-0.215L0.143,-0.215ZM0.357,-0.299C0.356,-0.338 0.345,-0.368 0.325,-0.388C0.306,-0.407 0.281,-0.417 0.25,-0.417C0.219,-0.417 0.194,-0.407 0.175,-0.388C0.156,-0.368 0.145,-0.338 0.143,-0.299L0.357,-0.299Z" style="fill-rule:nonzero;"/>
                </g>
                <g transform="matrix(72,0,0,72,499.133,348.573)">
                    <path d="M0.066,-0.507L0.168,-0.507L0.168,-0.453L0.17,-0.453C0.203,-0.493 0.247,-0.513 0.302,-0.513C0.344,-0.513 0.382,-0.498 0.417,-0.469C0.451,-0.439 0.47,-0.395 0.471,-0.337L0.471,0L0.369,0L0.369,-0.302C0.369,-0.337 0.36,-0.364 0.341,-0.383C0.322,-0.402 0.298,-0.411 0.269,-0.411C0.24,-0.411 0.216,-0.402 0.197,-0.383C0.178,-0.364 0.168,-0.337 0.168,-0.302L0.168,0L0.066,0L0.066,-0.507Z" style="fill-rule:nonzero;"/>
                </g>
                <g transform="matrix(72,0,0,72,537.804,348.573)">
                    <path d="M0.072,-0.661L0.174,-0.661L0.174,-0.507L0.248,-0.507L0.248,-0.429L0.174,-0.429L0.174,-0.134C0.173,-0.108 0.185,-0.096 0.21,-0.096L0.248,-0.096L0.248,0L0.195,0C0.159,0 0.13,-0.011 0.107,-0.033C0.083,-0.054 0.072,-0.085 0.072,-0.125L0.072,-0.429L0.021,-0.429L0.021,-0.507L0.072,-0.507L0.072,-0.661Z" style="fill-rule:nonzero;"/>
                </g>
                <g transform="matrix(72,0,0,72,575.07,348.573)">
                    <path d="M0.062,-0.712L0.17,-0.712L0.17,-0.253C0.171,-0.204 0.185,-0.167 0.212,-0.142C0.239,-0.115 0.273,-0.102 0.315,-0.102C0.357,-0.102 0.392,-0.115 0.419,-0.142C0.446,-0.167 0.459,-0.204 0.46,-0.253L0.46,-0.712L0.568,-0.712L0.568,-0.241C0.567,-0.166 0.542,-0.107 0.495,-0.063C0.448,-0.018 0.388,0.005 0.315,0.006C0.244,0.005 0.184,-0.018 0.136,-0.063C0.087,-0.107 0.063,-0.166 0.062,-0.241L0.062,-0.712Z" style="fill-rule:nonzero;"/>
                </g>
                <g transform="matrix(72,0,0,72,620.422,348.573)">
                    <path d="M0.062,-0.712L0.17,-0.712L0.17,-0.253C0.171,-0.204 0.185,-0.167 0.212,-0.142C0.239,-0.115 0.273,-0.102 0.315,-0.102C0.357,-0.102 0.392,-0.115 0.419,-0.142C0.446,-0.167 0.459,-0.204 0.46,-0.253L0.46,-0.712L0.568,-0.712L0.568,-0.241C0.567,-0.166 0.542,-0.107 0.495,-0.063C0.448,-0.018 0.388,0.005 0.315,0.006C0.244,0.005 0.184,-0.018 0.136,-0.063C0.087,-0.107 0.063,-0.166 0.062,-0.241L0.062,-0.712Z" style="fill-rule:nonzero;"/>
                </g>
                <g transform="matrix(72,0,0,72,665.773,348.573)">
                    <rect x="0.075" y="-0.712" width="0.108" height="0.712" style="fill-rule:nonzero;"/>
                </g>
                <g transform="matrix(72,0,0,72,684.336,348.573)">
                    <path d="M0.075,-0.712L0.324,-0.712C0.421,-0.711 0.493,-0.671 0.541,-0.592C0.558,-0.565 0.569,-0.537 0.574,-0.508C0.577,-0.479 0.579,-0.428 0.579,-0.356C0.579,-0.279 0.576,-0.226 0.571,-0.196C0.568,-0.181 0.564,-0.167 0.559,-0.155C0.554,-0.143 0.547,-0.131 0.539,-0.118C0.518,-0.085 0.489,-0.057 0.452,-0.035C0.415,-0.012 0.37,0 0.317,0L0.075,0L0.075,-0.712ZM0.183,-0.102L0.312,-0.102C0.373,-0.102 0.417,-0.123 0.444,-0.164C0.456,-0.179 0.464,-0.199 0.467,-0.222C0.47,-0.245 0.471,-0.289 0.471,-0.352C0.471,-0.414 0.47,-0.458 0.467,-0.485C0.463,-0.512 0.454,-0.533 0.439,-0.55C0.409,-0.591 0.367,-0.611 0.312,-0.61L0.183,-0.61L0.183,-0.102Z" style="fill-rule:nonzero;"/>
                </g>
            </g>
        </g>
    </g>
</svg>
